<svg width="30" height="30" viewBox="0 0 30 30" fill="none" xmlns="http://www.w3.org/2000/svg">
<g clip-path="url(#clip0_13_718)">
<path d="M0 7.54919V10.8334H4.69L0 7.54919ZM3.88667 25.8334H10.8333V20.9692L3.88667 25.8334ZM19.1667 20.97V25.8334H26.1125L19.1667 20.97ZM0 19.1667V22.4509L4.69167 19.1667H0ZM26.1142 4.16669H19.1667V9.03085L26.1142 4.16669ZM30 22.4517V19.1667H25.3075L30 22.4517ZM30 10.8334V7.54919L25.3092 10.8334H30ZM10.8333 4.16669H3.88667L10.8333 9.03085V4.16669Z" fill="#00247D"/>
<path d="M20.95 19.1667L29.0434 24.8342C29.4386 24.427 29.7227 23.9251 29.8684 23.3767L23.8559 19.1667H20.95ZM10.8334 19.1667H9.04919L0.956693 24.8333C1.39086 25.275 1.94753 25.5908 2.57169 25.7375L10.8334 19.9525V19.1667ZM19.1667 10.8333H20.9509L29.0434 5.16668C28.6017 4.71857 28.042 4.40503 27.4292 4.26251L19.1667 10.0475V10.8333ZM9.04919 10.8333L0.956693 5.16668C0.561654 5.57416 0.277371 6.07588 0.130859 6.62418L6.14336 10.8333H9.04919Z" fill="#CF1B2B"/>
<path d="M30 17.5H17.5V25.8334H19.1667V20.97L26.1125 25.8334H26.6667C27.1094 25.8334 27.5477 25.7451 27.9558 25.5735C28.3639 25.4019 28.7337 25.1506 29.0433 24.8342L20.95 19.1667H23.8558L29.8683 23.3767C29.9458 23.0959 30 22.805 30 22.5V22.4517L25.3075 19.1667H30V17.5ZM0 17.5V19.1667H4.69167L0 22.4509V22.5C0 23.4092 0.365833 24.2317 0.956667 24.8334L9.04917 19.1667H10.8333V19.9525L2.57167 25.7367C2.81667 25.795 3.07 25.8334 3.33333 25.8334H3.88667L10.8333 20.9692V25.8334H12.5V17.5H0ZM30 7.50002C30.0005 6.62667 29.6568 5.78831 29.0433 5.16669L20.9508 10.8334H19.1667V10.0475L27.4292 4.26252C27.1795 4.20129 26.9237 4.16914 26.6667 4.16669H26.1142L19.1667 9.03085V4.16669H17.5V12.5H30V10.8334H25.3092L30 7.54919V7.50002ZM10.8333 4.16669V9.03085L3.88667 4.16669H3.33333C2.89052 4.16649 2.45214 4.25486 2.04398 4.4266C1.63582 4.59833 1.26614 4.84996 0.956667 5.16669L9.04917 10.8334H6.14333L0.130833 6.62419C0.0481502 6.90895 0.00414451 7.20353 0 7.50002L0 7.54919L4.69 10.8334H0V12.5H12.5V4.16669H10.8333Z" fill="#EEEEEE"/>
<path d="M17.5 12.5V4.16669H12.5V12.5H0V17.5H12.5V25.8334H17.5V17.5H30V12.5H17.5Z" fill="#CF1B2B"/>
</g>
<defs>
<clipPath id="clip0_13_718">
<rect width="30" height="30" fill="white"/>
</clipPath>
</defs>
</svg>
